<svg id="Gruppe_1" data-name="Gruppe 1" xmlns="http://www.w3.org/2000/svg" width="1148" height="1268" viewBox="0 0 1148 1268">
  <defs>
    <style>
      .cls-1, .cls-2 {
        fill-rule: evenodd;
      }

      .cls-2 {
        fill: none;
        stroke: #000;
        stroke-width: 40.43px;
      }
    </style>
  </defs>
  <path class="cls-1" d="M437.511,400c54.951,0,99.5,44.323,99.5,99s-44.546,99-99.5,99-99.5-44.322-99.5-99S382.56,400,437.511,400Z"/>
  <path class="cls-2" d="M132.934,163.979c51.229,0,92.758,42.408,92.758,94.72s-41.529,94.721-92.758,94.721S40.177,311.012,40.177,258.7,81.706,163.979,132.934,163.979Z"/>
  <rect id="Rechteck_1" data-name="Rechteck 1" x="112" width="42" height="150"/>
  <path class="cls-2" d="M742.681,163.979c51.229,0,92.758,42.408,92.758,94.72S793.91,353.42,742.681,353.42s-92.757-42.408-92.757-94.721S691.453,163.979,742.681,163.979Z"/>
  <path id="Form_1" data-name="Form 1" class="cls-1" d="M188,353s66.875,179.88,141.692,251.691A215.7,215.7,0,0,0,372,636s41.443,28.853,98.711,13.16C510.632,638.221,558.728,603.692,607,518c59.215-113.875,81.548-172.246,85-178s12-15,12-15l44,29-4,21S685.646,569.988,643,632c0,0-62.458,140.332-71,220l-13,195,569,105-24,85-507,31s-240.076,11.88-273-153c0,0-8.116-247.631-33-324,4.574-3.783-152.916-397.392-161-428C116.393,311.482,188,353,188,353Z"/>
  <rect id="Rechteck_1-2" data-name="Rechteck 1" x="721.75" width="42" height="150"/>
</svg>
