<?xml version="1.0" encoding="iso-8859-1"?>
<!-- Uploaded to: SVG Repo, www.svgrepo.com, Generator: SVG Repo Mixer Tools -->
<!DOCTYPE svg PUBLIC "-//W3C//DTD SVG 1.1//EN" "http://www.w3.org/Graphics/SVG/1.1/DTD/svg11.dtd">
<svg fill="#000000" version="1.1" id="Capa_1" xmlns="http://www.w3.org/2000/svg" xmlns:xlink="http://www.w3.org/1999/xlink" 
	 width="800px" height="800px" viewBox="0 0 523.289 523.289"
	 xml:space="preserve">
<g>
	<circle cx="146.663" cy="46.579" r="46.579"/>
	<path d="M503.028,159.072c-11.159-4.705-23.103-10.911-32.741-17.671c-4.332-3.022-6.082-1.808-4.256,3.136l3.204,8.721
		l-37.361,0.22C424.635,17.356,301.078,4.581,299.796,4.466c-7.841-0.688-14.869,5.097-15.577,12.996
		c-0.708,7.879,5.106,14.869,12.995,15.577c4.188,0.373,99.221,10.279,105.924,120.602l-77.36,0.459
		c-3.634-11.685-14.401-20.225-27.272-20.225h-99.507c-4.389-10.232-14.544-17.404-26.373-17.404h-50.194l-64.308-32.14
		c-14.181-7.076-31.413-1.348-38.489,12.833c-7.085,14.181-1.348,31.394,12.823,38.489l59.565,29.768v113.162L34.82,487
		c-4.198,15.279,4.791,31.059,20.071,35.266c2.544,0.688,5.097,1.023,7.612,1.023c12.594,0,24.146-8.367,27.646-21.105
		l51.781-188.658h8.941l47.975,188.152c3.309,12.977,14.975,21.611,27.779,21.611c2.343,0,4.733-0.277,7.104-0.898
		c15.348-3.902,24.624-19.537,20.712-34.885l-53.129-208.387V191.26h97.193c12.068,0,22.348-7.459,26.594-18.025
		c16.792-0.096,48.146-0.277,78.077-0.459c-3.949,96.936-90.968,125.881-94.726,127.066c-7.564,2.334-11.791,10.385-9.448,17.949
		c1.913,6.148,7.574,10.088,13.694,10.088c1.405,0,2.84-0.201,4.255-0.631c1.138-0.344,111.164-35.984,115.085-154.635
		c15.778-0.096,29.271-0.172,37.312-0.22l-3.117,8.74c-1.77,4.982,0.01,6.168,4.303,3.079c9.562-6.856,21.43-13.187,32.532-18.044
		C507.915,164.054,507.896,161.128,503.028,159.072z"/>
</g>
</svg>